<?xml version="1.0" encoding="UTF-8"?><svg id="Calque_1" xmlns="http://www.w3.org/2000/svg" viewBox="0 0 45.56 411.81"><defs><style>.cls-1{fill:#fff;stroke:#fff;stroke-miterlimit:10;}</style></defs><path class="cls-1" d="M24.29,408.77l.53-2.44,9.6-44.02h-10.14v-4.88l21.02-12.01-19.33,6.57-1.69-295.45,18.58-13.7,.19-20.27-17.46,13.7,17.46-15.58,.19-14.64-17.83,13.33L43.06,3.61l-.38-2.63-18.4,15.58L2.7,.98V12.05l17.91,14.83v3.19L2.7,15.99v12.95l17.91,14.27v3.94L2.7,33.64v8.82l17.91,14.45V352.55L.26,344.86l20.35,12.58v4.69l-8.52,.75s7.7,40.17,9.2,45.89,3,0,3,0Z"/></svg>